<svg class="divider" id="visual" viewBox="0 0 1440 120" width="1440" height="120" xmlns="http://www.w3.org/2000/svg" xmlns:xlink="http://www.w3.org/1999/xlink" version="1.1"><path d="M0 89L206 97L411 59L617 92L823 97L1029 76L1234 72L1440 86L1440 0L1234 0L1029 0L823 0L617 0L411 0L206 0L0 0Z" fill="#ffffff"></path><path d="M0 80L206 67L411 52L617 54L823 73L1029 61L1234 56L1440 80L1440 0L1234 0L1029 0L823 0L617 0L411 0L206 0L0 0Z" fill="#bebebe"></path><path d="M0 49L206 45L411 43L617 34L823 38L1029 47L1234 39L1440 56L1440 0L1234 0L1029 0L823 0L617 0L411 0L206 0L0 0Z" fill="#818181"></path><path d="M0 39L206 26L411 23L617 40L823 26L1029 23L1234 31L1440 39L1440 0L1234 0L1029 0L823 0L617 0L411 0L206 0L0 0Z" fill="#494949"></path><path d="M0 17L206 28L411 14L617 23L823 14L1029 11L1234 16L1440 16L1440 0L1234 0L1029 0L823 0L617 0L411 0L206 0L0 0Z" fill="#171717"></path></svg>
