<?xml version="1.0" encoding="iso-8859-1"?>
<!-- Uploaded to: SVG Repo, www.svgrepo.com, Generator: SVG Repo Mixer Tools -->
<svg class="svg-nav" fill="#000000" height="48px" width="48px" version="1.1" id="Capa_1" xmlns="http://www.w3.org/2000/svg" xmlns:xlink="http://www.w3.org/1999/xlink"
	 viewBox="0 0 511.999 511.999" xml:space="preserve">
<g>
	<g>
		<path d="M427.359,137.991c-41.382-41.381-96.4-64.17-154.92-64.17c-17.252,0-34.428,2.012-51.055,5.981
			c-4.084,0.975-6.604,5.076-5.629,9.159c0.975,4.085,5.076,6.606,9.16,5.63c15.471-3.694,31.461-5.566,47.524-5.566
			c112.422,0,203.885,91.463,203.885,203.885c0,111.008-89.179,201.57-199.655,203.832c-0.077-0.002-0.153-0.011-0.23-0.011
			c-18.064,0-35.663-2.014-52.6-5.804C134.808,469.07,68.555,388.588,68.555,292.911c0-74.287,40.451-142.744,105.567-178.659
			c3.676-2.028,5.013-6.652,2.985-10.328s-6.652-5.012-10.328-2.985C96.813,139.526,53.349,213.086,53.349,292.91
			c0,32.894,7.201,64.681,20.855,93.561c-24.364-37.625-38.53-82.439-38.53-130.504c0-130.213,103.909-236.615,233.161-240.644
			V48.89c0,4.199,3.404,7.602,7.602,7.602c4.199,0,7.602-3.403,7.602-7.602V7.602c0-4.199-3.403-7.602-7.602-7.602
			c-68.37,0-132.65,26.626-180.995,74.971c-48.346,48.345-74.971,112.625-74.971,180.996s26.626,132.651,74.971,180.996
			c34.936,34.935,78.194,58.521,125.301,68.922c16.73,4.028,34.051,6.114,51.695,6.114c58.52,0,113.539-22.789,154.92-64.171
			c41.38-41.38,64.17-96.399,64.17-154.919C491.528,234.389,468.739,179.372,427.359,137.991z"/>
	</g>
</g>
<g>
	<g>
		<path d="M271.517,112.908c-35.289,0-63.999,28.71-63.999,64c0,35.288,28.71,63.999,63.999,63.999s63.999-28.71,63.999-63.999
			C335.516,141.617,306.806,112.908,271.517,112.908z M271.517,128.112c17.741,0,33.297,9.521,41.839,23.718
			c-27.393-8.135-56.337-8.126-83.694,0.03C238.199,137.646,253.763,128.112,271.517,128.112z M271.517,225.701
			c-26.905,0-48.794-21.889-48.794-48.794c0-2.286,0.17-4.532,0.475-6.735c31.164-12.276,65.414-12.308,96.63-0.058
			c0.311,2.222,0.483,4.487,0.483,6.793C320.311,203.812,298.423,225.701,271.517,225.701z"/>
	</g>
</g>
<g>
	<g>
		<path d="M271.517,343.474c-35.289,0-63.999,28.711-63.999,63.999c0,35.288,28.71,63.999,63.999,63.999s63.999-28.71,63.999-63.999
			S306.806,343.474,271.517,343.474z M271.517,456.267c-17.041,0-32.061-8.787-40.79-22.061c13.366,3.864,27.112,5.804,40.858,5.804
			c13.694,0,27.385-1.918,40.686-5.748C303.537,447.505,288.534,456.267,271.517,456.267z M224.818,416.234
			c-0.448-0.169-0.903-0.289-1.358-0.371c-0.475-2.728-0.737-5.528-0.737-8.39c0-26.905,21.889-48.794,48.794-48.794
			c26.905,0,48.794,21.889,48.794,48.794c0,2.821-0.254,5.582-0.716,8.273C289.098,427.647,255.455,427.826,224.818,416.234z"/>
	</g>
</g>
<g>
	<g>
		<path d="M157.839,229.797c-35.289,0-63.999,28.71-63.999,63.999s28.71,64,63.999,64s63.999-28.71,63.999-64
			C221.838,258.506,193.128,229.797,157.839,229.797z M109.045,293.795c0-16.434,8.175-30.985,20.664-39.831
			c-7.225,26.278-7.016,53.922,0.639,80.118C117.496,325.284,109.045,310.51,109.045,293.795z M157.839,342.59
			c-3.007,0-5.948-0.288-8.806-0.812c-0.047-0.143-0.088-0.286-0.144-0.428c-12.127-30.744-12.314-64.562-0.58-95.409
			c3.084-0.613,6.269-0.941,9.531-0.941c26.905,0,48.794,21.889,48.794,48.794C206.634,320.699,184.744,342.59,157.839,342.59z"/>
	</g>
</g>
<g>
	<g>
		<path d="M392.716,229.796c-35.289,0-64,28.71-64,63.999c0,35.29,28.71,64,64,64c35.288,0,63.999-28.71,63.999-64
			C456.714,258.506,428.005,229.796,392.716,229.796z M393.958,342.128c-0.058,0.144-0.101,0.289-0.149,0.434
			c-0.365,0.008-0.727,0.027-1.093,0.027c-26.905,0-48.795-21.89-48.795-48.795s21.889-48.793,48.794-48.793
			c0.704,0,1.403,0.023,2.1,0.053c0.061,0.646,0.197,1.294,0.433,1.932C406.674,277.834,406.215,311.623,393.958,342.128z
			 M411.307,338.901c9.613-29.189,9.856-60.552,0.672-89.929c17.352,7.486,29.532,24.755,29.532,44.823
			C441.51,314.12,429.015,331.575,411.307,338.901z"/>
	</g>
</g>
<g>
	<g>
		<path d="M271.517,263.076c-16.451,0-29.836,13.384-29.836,29.836c0,16.452,13.384,29.836,29.836,29.836
			c16.451-0.001,29.835-13.385,29.835-29.836C301.352,276.46,287.968,263.076,271.517,263.076z M271.518,307.543
			c-8.067,0-14.632-6.564-14.632-14.632c0-8.067,6.563-14.632,14.632-14.632c8.069,0,14.63,6.564,14.63,14.632
			S279.585,307.543,271.518,307.543z"/>
	</g>
</g>
</svg>
